# xmcd
#
# Track frame offsets:
#	150
#	32650
#	60975
#	83031
#	117611
#	153228
#	185883
#
# Disc length: 2763 seconds
#
# Revision: 1
# Processed by: cddbd v1.5.1PL2 Copyright (c) Steve Scherf et al.
# Submitted via: EasyCDDAExtractor 9.0.0.1
#
DISCID=550ac907
DTITLE=Black Sabbath - Milton Keynes Bowl 20-06-98 Disc 2
DYEAR=1998
DGENRE=Hard Rock
TTITLE0=Sweet Leaf
TTITLE1=Electric Funeral
TTITLE2=Sabbath Bloody Sabbath
TTITLE3=Black Sabbath
TTITLE4=Iron Man
TTITLE5=Children Of The Grave
TTITLE6=Paranoid
EXTD=
EXTT0=
EXTT1=
EXTT2=
EXTT3=
EXTT4=
EXTT5=
EXTT6=
PLAYORDER=
